<svg id="hourglass-1" xmlns="http://www.w3.org/2000/svg" width="20.301" height="20.301" viewBox="0 0 20.301 20.301">
  <g id="Group_52" data-name="Group 52" transform="translate(15.272 1.323)">
    <g id="Group_51" data-name="Group 51" transform="translate(0.325 -0.172)">
      <rect id="Rectangle_11" data-name="Rectangle 11" width="1" height="1" transform="translate(-0.446)" fill="#37d4b1"/>
    </g>
  </g>
  <g id="Group_54" data-name="Group 54" transform="translate(14.983 3.584)">
    <g id="Group_53" data-name="Group 53" transform="translate(0.325 -0.433)">
      <rect id="Rectangle_12" data-name="Rectangle 12" width="1" height="2" transform="translate(-0.157)" fill="#37d4b1"/>
    </g>
  </g>
  <g id="Group_56" data-name="Group 56" transform="translate(12.934 1.323)">
    <g id="Group_55" data-name="Group 55" transform="translate(0.217 -0.172)">
      <rect id="Rectangle_13" data-name="Rectangle 13" width="1" height="1" transform="translate(0)" fill="#37d4b1"/>
    </g>
  </g>
  <g id="Group_58" data-name="Group 58" transform="translate(1.323 16.456)">
    <g id="Group_57" data-name="Group 57" transform="translate(0 0)">
      <rect id="Rectangle_14" data-name="Rectangle 14" width="1" height="1" transform="translate(-0.172 -0.306)" fill="#37d4b1"/>
    </g>
  </g>
  <g id="Group_60" data-name="Group 60" transform="translate(3.584 16.456)">
    <g id="Group_59" data-name="Group 59" transform="translate(0 0)">
      <rect id="Rectangle_15" data-name="Rectangle 15" width="2" height="1" transform="translate(-0.433 -0.306)" fill="#37d4b1"/>
    </g>
  </g>
  <g id="Group_62" data-name="Group 62" transform="translate(1.323 14.195)">
    <g id="Group_61" data-name="Group 61" transform="translate(0 0)">
      <rect id="Rectangle_16" data-name="Rectangle 16" width="1" height="1" transform="translate(-0.172 -0.045)" fill="#37d4b1"/>
    </g>
  </g>
  <g id="Group_64" data-name="Group 64">
    <g id="Group_63" data-name="Group 63">
      <path id="Path_215" data-name="Path 215" d="M19.625,11.626V11.5h.338a.338.338,0,0,0,.338-.338V9.812a.338.338,0,0,0-.338-.338H17.594V.338A.338.338,0,0,0,17.256,0H3.384c-.007,0-.013,0-.02,0a.332.332,0,0,0-.089.018c-.01,0-.021.006-.031.011a.339.339,0,0,0-.1.066L.1,3.144a.337.337,0,0,0-.066.1c0,.01-.007.021-.011.032A.336.336,0,0,0,0,3.363c0,.007,0,.014,0,.021V18.609a.338.338,0,0,0,.338.338H12.181v1.015a.338.338,0,0,0,.338.338h7.444a.338.338,0,0,0,.338-.338V18.609a.338.338,0,0,0-.338-.338h-.338v-.677a3.369,3.369,0,0,0-1.356-2.707A4.536,4.536,0,0,0,19.625,11.626Zm0-1.475v.677H12.857v-.677h6.767ZM12.519,11.5h.175a4.391,4.391,0,1,1,.5-2.03h-.677a.338.338,0,0,0-.338.338v1.353A.338.338,0,0,0,12.519,11.5ZM3.045,1.155v1.89H1.155ZM.677,18.271V3.722H3.384a.338.338,0,0,0,.338-.338V.677h13.2v8.8H13.873a5.1,5.1,0,1,0-1,3,3.364,3.364,0,0,0,1.338,2.409,3.369,3.369,0,0,0-1.356,2.707v.677H.677Zm18.948.677v.677H12.857v-.677h6.767Zm-4.111-.677.727-.582.727.582Zm1.963-3.083a2.7,2.7,0,0,1,1.471,2.406v.677h-.9l-1.473-1.178V16.025H15.9v1.069L14.43,18.271h-.9v-.677a2.7,2.7,0,0,1,1.471-2.406.338.338,0,0,0,0-.6,2.7,2.7,0,0,1-1.471-2.406V11.5h5.414v.677a2.7,2.7,0,0,1-1.471,2.406.338.338,0,0,0,0,.6Z" fill="#37d4b1"/>
    </g>
  </g>
  <g id="Group_66" data-name="Group 66" transform="translate(14.549 12.181)">
    <g id="Group_65" data-name="Group 65">
      <path id="Path_216" data-name="Path 216" d="M347.356,288.295a.36.36,0,0,0-.313-.295h-2.707a.36.36,0,0,0-.313.295.629.629,0,0,0,.073.521l1.254,1.772v.758h.677v-.758l1.254-1.772A.629.629,0,0,0,347.356,288.295Zm-1.666,1.419-.537-.758h1.073Z" transform="translate(-343.999 -288)" fill="#37d4b1"/>
    </g>
  </g>
  <g id="Group_68" data-name="Group 68" transform="translate(15.826 15.195)">
    <g id="Group_67" data-name="Group 67" transform="translate(0 0)">
      <rect id="Rectangle_17" data-name="Rectangle 17" height="1" transform="translate(0.325 -0.045)"/>
    </g>
  </g>
  <g id="Group_70" data-name="Group 70" transform="translate(6.533 7.881)">
    <g id="Group_69" data-name="Group 69">
      <path id="Path_217" data-name="Path 217" d="M158.955,186.344l-2.812,2.812-1.2-1.149-.467.49,1.443,1.377a.338.338,0,0,0,.473-.005l3.045-3.045Z" transform="translate(-154.472 -186.344)" fill="#37d4b1"/>
    </g>
  </g>
</svg>
