<svg xmlns="http://www.w3.org/2000/svg" width="14.503" height="22.899" viewBox="0 0 14.503 22.899">
  <g id="hourglass" transform="translate(-93.867)">
    <g id="Group_38" data-name="Group 38" transform="translate(93.867)">
      <g id="Group_37" data-name="Group 37" transform="translate(0)">
        <path id="Path_208" data-name="Path 208" d="M107.225,0H95.012a1.145,1.145,0,1,0,0,2.29h12.213a1.145,1.145,0,1,0,0-2.29Zm0,1.527H95.012a.382.382,0,1,1,0-.763h12.213a.382.382,0,1,1,0,.763Z" transform="translate(-93.867)" fill="#37d4b1"/>
      </g>
    </g>
    <g id="Group_40" data-name="Group 40" transform="translate(93.867 20.609)">
      <g id="Group_39" data-name="Group 39" transform="translate(0)">
        <path id="Path_209" data-name="Path 209" d="M107.225,460.8H95.012a1.145,1.145,0,1,0,0,2.29h12.213a1.145,1.145,0,1,0,0-2.29Zm0,1.527H95.012a.382.382,0,0,1,0-.763h12.213a.382.382,0,1,1,0,.763Z" transform="translate(-93.867 -460.8)" fill="#37d4b1"/>
      </g>
    </g>
    <g id="Group_42" data-name="Group 42" transform="translate(95.394 1.527)">
      <g id="Group_41" data-name="Group 41" transform="translate(0)">
        <path id="Path_210" data-name="Path 210" d="M136.444,42.64a10.193,10.193,0,0,0,3.005-7.255v-.87a.382.382,0,0,0-.382-.382H128.382a.382.382,0,0,0-.382.382v.87a10.193,10.193,0,0,0,3,7.255l.384.384a1.461,1.461,0,0,1,0,2.066l-.384.384A10.192,10.192,0,0,0,128,52.728v.87a.382.382,0,0,0,.382.382h10.686a.382.382,0,0,0,.382-.382v-.87a10.193,10.193,0,0,0-3.005-7.255l-.384-.384a1.461,1.461,0,0,1,0-2.066Zm-.923-.156a2.224,2.224,0,0,0,0,3.146l.384.384a9.435,9.435,0,0,1,2.781,6.715v.488h-9.923v-.488a9.435,9.435,0,0,1,2.781-6.715l.384-.384a2.224,2.224,0,0,0,0-3.146l-.384-.384a9.435,9.435,0,0,1-2.781-6.715V34.9h9.923v.488A9.434,9.434,0,0,1,135.9,42.1Z" transform="translate(-128 -34.134)" fill="#37d4b1"/>
      </g>
    </g>
    <g id="Group_44" data-name="Group 44" transform="translate(98.065 5.115)">
      <g id="Group_43" data-name="Group 43" transform="translate(0)">
        <path id="Path_211" data-name="Path 211" d="M194.019,115.677a.543.543,0,0,0-.554-.323,5.536,5.536,0,0,1-3.217-.678,1.631,1.631,0,0,0-1.5-.221,1.5,1.5,0,0,0-.965,1.036,1.242,1.242,0,0,0-.04.21.4.4,0,0,0,.048.223,8.484,8.484,0,0,0,1.364,1.9l.383.384a2.965,2.965,0,0,1,.875,2.112.382.382,0,0,0,.763,0,2.968,2.968,0,0,1,.875-2.112l.384-.384c.094-.094.217-.21.352-.337C193.773,116.555,194.188,116.1,194.019,115.677Zm-1.756,1.249c-.141.133-.27.255-.369.353l-.384.384a3.75,3.75,0,0,0-.717,1,3.748,3.748,0,0,0-.717-1l-.383-.384a7.32,7.32,0,0,1-1.169-1.608.746.746,0,0,1,.477-.5.868.868,0,0,1,.8.12,5.835,5.835,0,0,0,3.281.818C192.846,116.378,192.476,116.726,192.263,116.926Z" transform="translate(-187.741 -114.362)" fill="#37d4b1"/>
      </g>
    </g>
    <g id="Group_46" data-name="Group 46" transform="translate(96.945 16.029)">
      <g id="Group_45" data-name="Group 45" transform="translate(0)">
        <path id="Path_212" data-name="Path 212" d="M171.04,361.805a3.308,3.308,0,0,0-1.166-2.346c-.077-.081-.158-.164-.241-.253a2.554,2.554,0,0,0-1.858-.806h-1.813a2.555,2.555,0,0,0-1.858.806c-.083.089-.163.172-.241.252a3.306,3.306,0,0,0-1.166,2.347.381.381,0,0,0,.38.411h7.583a.382.382,0,0,0,.381-.411Zm-7.528-.352a2.653,2.653,0,0,1,.9-1.465c.08-.083.163-.17.249-.261a1.786,1.786,0,0,1,1.3-.564h1.813a1.789,1.789,0,0,1,1.3.564c.086.092.169.178.25.262a2.657,2.657,0,0,1,.9,1.464Z" transform="translate(-162.696 -358.4)" fill="#37d4b1"/>
      </g>
    </g>
    <g id="Group_48" data-name="Group 48" transform="translate(100.725 12.213)">
      <g id="Group_47" data-name="Group 47" transform="translate(0)">
        <path id="Path_213" data-name="Path 213" d="M247.593,273.067a.382.382,0,0,0-.382.382v.382a.382.382,0,0,0,.763,0v-.382A.382.382,0,0,0,247.593,273.067Z" transform="translate(-247.211 -273.067)" fill="#37d4b1"/>
      </g>
    </g>
    <g id="Group_50" data-name="Group 50" transform="translate(100.725 14.121)">
      <g id="Group_49" data-name="Group 49" transform="translate(0)">
        <path id="Path_214" data-name="Path 214" d="M247.593,315.733a.382.382,0,0,0-.382.382v.382a.382.382,0,0,0,.763,0v-.382A.382.382,0,0,0,247.593,315.733Z" transform="translate(-247.211 -315.733)" fill="#37d4b1"/>
      </g>
    </g>
  </g>
</svg>
