<svg xmlns="http://www.w3.org/2000/svg" width="22.99" height="22.224" viewBox="0 0 22.99 22.224">
  <g id="money" transform="translate(0 -7.982)">
    <g id="Group_22" data-name="Group 22" transform="translate(0 15.281)">
      <g id="Group_21" data-name="Group 21" transform="translate(0)">
        <path id="Path_182" data-name="Path 182" d="M19.534,160.017H.329a.329.329,0,0,0-.329.328H0v9.218a.329.329,0,0,0,.328.329h13.06a.329.329,0,1,0,0-.658H.658v-8.56H19.2v.823a.329.329,0,0,0,.328.329h0a.329.329,0,0,0,.329-.328h0v-1.152A.329.329,0,0,0,19.534,160.017Z" transform="translate(0 -160.017)" fill="#37d4b1"/>
      </g>
    </g>
    <g id="Group_24" data-name="Group 24" transform="translate(0.768 10.288)">
      <g id="Group_23" data-name="Group 23">
        <path id="Path_183" data-name="Path 183" d="M32.528,59.484,17.165,56.027a.329.329,0,0,0-.394.25L16,59.733a.329.329,0,0,0,.643.143l.7-3.135,15.042,3.384a.31.31,0,0,0,.073.008.329.329,0,0,0,.072-.65Z" transform="translate(-15.995 -56.019)" fill="#37d4b1"/>
      </g>
    </g>
    <g id="Group_26" data-name="Group 26" transform="translate(4.987 7.982)">
      <g id="Group_25" data-name="Group 25">
        <path id="Path_184" data-name="Path 184" d="M114.323,11.848l-9.218-3.841a.33.33,0,0,0-.422.157L103.915,9.7a.33.33,0,0,0,.581.314l.01-.019h0l.63-1.261,8.933,3.722a.33.33,0,1,0,.254-.609Z" transform="translate(-103.875 -7.982)" fill="#37d4b1"/>
      </g>
    </g>
    <g id="Group_28" data-name="Group 28" transform="translate(12.291 16.818)">
      <g id="Group_27" data-name="Group 27">
        <path id="Path_185" data-name="Path 185" d="M259.378,192.017h-3.048a.329.329,0,1,0,0,.658h3.048a.329.329,0,1,0,0-.658Z" transform="translate(-256 -192.017)" fill="#37d4b1"/>
      </g>
    </g>
    <g id="Group_30" data-name="Group 30" transform="translate(6.167 16.84)">
      <g id="Group_29" data-name="Group 29">
        <path id="Path_186" data-name="Path 186" d="M131.836,192.473a3.38,3.38,0,1,0,3.38,3.38A3.38,3.38,0,0,0,131.836,192.473Zm0,6.145a2.765,2.765,0,1,1,2.765-2.765A2.765,2.765,0,0,1,131.836,198.618Z" transform="translate(-128.456 -192.473)" fill="#37d4b1"/>
      </g>
    </g>
    <g id="Group_32" data-name="Group 32" transform="translate(14.54 17.915)">
      <g id="Group_31" data-name="Group 31">
        <path id="Path_187" data-name="Path 187" d="M307.081,214.873c-2.036,0-4.225.481-4.225,1.536v9.218c0,1.055,2.189,1.536,4.225,1.536s4.225-.481,4.225-1.536v-9.218C311.306,215.354,309.117,214.873,307.081,214.873Zm3.457,10.749c-.058.213-1.21.774-3.457.774s-3.4-.561-3.457-.768v-.6a10.194,10.194,0,0,0,6.914,0Zm0-1.536c-.058.213-1.21.774-3.457.774s-3.4-.561-3.457-.768v-.6a10.194,10.194,0,0,0,6.914,0Zm0-1.536c-.058.213-1.21.774-3.457.774s-3.4-.561-3.457-.768v-.6a10.194,10.194,0,0,0,6.914,0Zm0-1.536c-.058.213-1.21.774-3.457.774s-3.4-.561-3.457-.768v-.6a10.194,10.194,0,0,0,6.914,0Zm0-1.536c-.058.213-1.21.774-3.457.774s-3.4-.561-3.457-.768v-.6a10.194,10.194,0,0,0,6.914,0Zm0-1.536c-.058.213-1.21.774-3.457.774s-3.4-.561-3.457-.768v-.6a10.194,10.194,0,0,0,6.914,0Zm-3.457-.762c-2.243,0-3.395-.559-3.457-.761v0c.062-.214,1.213-.773,3.457-.773,2.228,0,3.38.551,3.457.768C310.461,216.627,309.309,217.178,307.081,217.178Z" transform="translate(-302.856 -214.873)" fill="#37d4b1"/>
      </g>
    </g>
    <g id="Group_34" data-name="Group 34" transform="translate(1.536 16.818)">
      <g id="Group_33" data-name="Group 33">
        <path id="Path_188" data-name="Path 188" d="M36.931,198.162h-2.9l-1.377-1.506v-2.5l1.52-1.484h2.76a.329.329,0,1,0,0-.658H34.037a.329.329,0,0,0-.23.093l-1.716,1.673a.413.413,0,0,0-.1.269v2.732a.329.329,0,0,0,.086.222l1.561,1.707a.329.329,0,0,0,.243.107h3.049a.329.329,0,1,0,0-.658Z" transform="translate(-31.992 -192.017)" fill="#37d4b1"/>
      </g>
    </g>
    <g id="Group_36" data-name="Group 36" transform="translate(8.395 18.491)">
      <g id="Group_35" data-name="Group 35">
        <path id="Path_189" data-name="Path 189" d="M176.2,228.217h-.384c-.119,0-.192-.067-.192-.1s.073-.1.192-.1h.96a.384.384,0,1,0,0-.768h-.384a.384.384,0,0,0-.768,0v.017a.894.894,0,0,0-.768.845.917.917,0,0,0,.96.866h.384c.119,0,.192.067.192.1s-.073.1-.192.1h-.96a.384.384,0,0,0,0,.768h.384a.384.384,0,0,0,.768,0v-.017a.894.894,0,0,0,.768-.845A.917.917,0,0,0,176.2,228.217Z" transform="translate(-174.856 -226.873)" fill="#37d4b1"/>
      </g>
    </g>
  </g>
</svg>
