<svg xmlns="http://www.w3.org/2000/svg" width="21.674" height="21.673" viewBox="0 0 21.674 21.673">
  <g id="validators-pending" transform="translate(0.01 -0.008)">
    <path id="Path_190" data-name="Path 190" d="M385.822,35.981V32.369a.361.361,0,0,0-.361-.361h-1.445v.722H385.1v3.251Zm0,0" transform="translate(-366.687 -30.555)" fill="#37d4b1"/>
    <path id="Path_191" data-name="Path 191" d="M56.016,240.008v9.031a.361.361,0,0,0,.361.361H70.826a.361.361,0,0,0,.361-.361V246.51h-.722v2.167H56.738v-8.669Zm0,0" transform="translate(-53.496 -229.164)" fill="#37d4b1"/>
    <path id="Path_192" data-name="Path 192" d="M67.724.044C67.713.039,67.7.036,67.69.032A.359.359,0,0,0,67.6.013a.138.138,0,0,0-.022-.005h-11.2a.361.361,0,0,0-.361.361v.722h.722V.73H67.213V3.62a.361.361,0,0,0,.361.361h2.89V5.787h.722V3.62c0-.008,0-.014,0-.022a.351.351,0,0,0-.019-.093c0-.012-.007-.022-.012-.034a.359.359,0,0,0-.072-.106L67.829.114a.362.362,0,0,0-.1-.07Zm2.229,3.215H67.936V1.241Zm0,0" transform="translate(-53.496)" fill="#37d4b1"/>
    <path id="Path_193" data-name="Path 193" d="M184.016,328.369v2.89a.361.361,0,0,0,.361.361h4.7V330.9h-4.335V328.73h1.806v-.722h-2.167A.361.361,0,0,0,184.016,328.369Zm0,0" transform="translate(-175.717 -313.19)" fill="#37d4b1"/>
    <path id="Path_194" data-name="Path 194" d="M216.016,360.008h2.167v.722h-2.167Zm0,0" transform="translate(-206.272 -343.745)" fill="#37d4b1"/>
    <path id="Path_195" data-name="Path 195" d="M110.826,136.008a2.532,2.532,0,0,0-2.529,2.529v.036l-1.842,1.945-1.153-1.153a.361.361,0,0,0-.511,0l-3.251,3.251a.361.361,0,0,0,0,.511l5.057,5.057a.361.361,0,0,0,.511,0l1.084-1.084,1.912-1.911v5.63H96.016v.722h14.449a.361.361,0,0,0,.361-.361V142.51H110.1v1.657l-1.259-1.259,1.945-1.842h.036a2.529,2.529,0,1,0,0-5.057Zm-3.973,11.41-4.546-4.546.573-.573,4.546,4.546Zm2.74-2.74-1.657,1.657-4.546-4.546,1.657-1.657.912.912-.813.858a.361.361,0,0,0,.007.506l1.806,1.806a.361.361,0,0,0,.5.007l.858-.813Zm1.233-4.335h-.181a.362.362,0,0,0-.249.1l-3.176,3.008-1.307-1.307,3.009-3.176a.361.361,0,0,0,.1-.249v-.181a1.806,1.806,0,1,1,1.806,1.806Zm0,0" transform="translate(-91.691 -129.859)" fill="#37d4b1"/>
    <path id="Path_196" data-name="Path 196" d="M152.016,232.008h3.612v.722h-3.612Zm0,0" transform="translate(-145.162 -221.525)" fill="#37d4b1"/>
    <path id="Path_197" data-name="Path 197" d="M104.016,264.008h4.335v.722h-4.335Zm0,0" transform="translate(-99.329 -252.08)" fill="#37d4b1"/>
    <path id="Path_198" data-name="Path 198" d="M176.016,200.008h4.335v.722h-4.335Zm0,0" transform="translate(-168.078 -190.97)" fill="#37d4b1"/>
    <path id="Path_199" data-name="Path 199" d="M104.016,296.008h2.167v.722h-2.167Zm0,0" transform="translate(-99.329 -282.635)" fill="#37d4b1"/>
    <path id="Path_200" data-name="Path 200" d="M104.016,328.008h2.89v.722h-2.89Zm0,0" transform="translate(-99.329 -313.19)" fill="#37d4b1"/>
    <path id="Path_201" data-name="Path 201" d="M104.016,360.008h2.89v.722h-2.89Zm0,0" transform="translate(-99.329 -343.745)" fill="#37d4b1"/>
    <path id="Path_202" data-name="Path 202" d="M104.016,392.008h2.89v.722h-2.89Zm0,0" transform="translate(-99.329 -374.3)" fill="#37d4b1"/>
    <path id="Path_203" data-name="Path 203" d="M104.016,232.008h1.445v.722h-1.445Zm0,0" transform="translate(-99.329 -221.525)" fill="#37d4b1"/>
    <path id="Path_204" data-name="Path 204" d="M168.016,296.008h1.445v.722h-1.445Zm0,0" transform="translate(-160.44 -282.635)" fill="#37d4b1"/>
    <path id="Path_205" data-name="Path 205" d="M200.016,160.008h3.612v.722h-3.612Zm0,0" transform="translate(-190.995 -152.776)" fill="#37d4b1"/>
    <path id="Path_206" data-name="Path 206" d="M4.325,40.664a4.335,4.335,0,0,0,4.327-4.183.955.955,0,0,0,.7.219.98.98,0,0,0,1.5,0,.98.98,0,0,0,1.063-1.063.98.98,0,0,0,0-1.5.98.98,0,0,0-1.063-1.063.98.98,0,0,0-1.5,0,.98.98,0,0,0-1.063,1.063.938.938,0,0,0-.144.149,4.335,4.335,0,1,0-3.82,6.383Zm4.5-6.018a.361.361,0,0,0,.205-.5.253.253,0,0,1,.338-.338.361.361,0,0,0,.5-.205.253.253,0,0,1,.477,0,.361.361,0,0,0,.5.205.253.253,0,0,1,.338.338.361.361,0,0,0,.205.5.253.253,0,0,1,0,.477.361.361,0,0,0-.205.5.243.243,0,0,1-.05.289.246.246,0,0,1-.289.05.361.361,0,0,0-.5.205.253.253,0,0,1-.477,0,.36.36,0,0,0-.2-.213.368.368,0,0,0-.138-.028.354.354,0,0,0-.155.036.253.253,0,0,1-.338-.338.361.361,0,0,0-.205-.5.253.253,0,0,1,0-.477Zm-4.5-1.929A3.612,3.612,0,1,1,.713,36.329a3.612,3.612,0,0,1,3.612-3.612Zm0,0" transform="translate(0 -30.542)" fill="#37d4b1"/>
    <text id="P" transform="translate(3.99 8.008)" fill="#37d4b1" font-size="6" font-family="Poppins-Regular, Poppins"><tspan x="-1.713" y="0">P</tspan></text>
  </g>
</svg>
