<svg xmlns="http://www.w3.org/2000/svg" width="345.456" height="744.11" viewBox="0 0 345.456 744.11">
  <g id="background-circles" transform="translate(494.456 -366.877) rotate(90)" opacity="0.79">
    <path id="Path_42" data-name="Path 42" d="M167.229,0c92.358,0,167.229,60.752,167.229,135.694-.254.314-335.4-.458-334.457,0C0,60.752,74.871,0,167.229,0Z" transform="translate(567.365 357.141)" fill="#087860" opacity="0.03"/>
    <path id="Path_41" data-name="Path 41" d="M283.439,0C439.977,0,566.877,102.97,566.877,229.99c1.56-.242-567.772,1.087-566.877,0C0,102.97,126.9,0,283.439,0Z" transform="translate(451.417 262.845)" fill="#01a27f" opacity="0.03"/>
    <path id="Path_40" data-name="Path 40" d="M370.456,0C575.311,0,746.983,142.607,746.983,345.2c2.031,1-743.088-1.31-744.106-1.31C2.877,141.3,165.6,0,370.456,0Z" transform="translate(364 149)" fill="#01a27f" opacity="0.03"/>
  </g>
</svg>
